<svg width="21" height="26" viewBox="0 0 21 26" fill="none" xmlns="http://www.w3.org/2000/svg">
<path d="M10.6118 22.664C9.35798 22.664 8.18932 22.4395 7.10579 21.9906C6.03774 21.5417 5.09353 20.9148 4.27314 20.1099C3.46824 19.305 2.8336 18.3608 2.36923 17.2773C1.92034 16.1938 1.69589 15.0096 1.69589 13.7249C1.69589 12.4401 1.92034 11.256 2.36923 10.1724C2.8336 9.07344 3.46824 8.12922 4.27314 7.33979C5.07805 6.53489 6.02226 5.91573 7.10579 5.48232C8.18932 5.03343 9.35798 4.80898 10.6118 4.80898C11.8811 4.80898 13.0497 5.03343 14.1178 5.48232C15.2013 5.91573 16.1455 6.53489 16.9504 7.33979C17.7708 8.1447 18.4054 9.08892 18.8543 10.1724C19.3032 11.256 19.5277 12.4401 19.5277 13.7249C19.5277 15.0096 19.2955 16.1938 18.8311 17.2773C18.3822 18.3608 17.7553 19.305 16.9504 20.1099C16.1455 20.9148 15.2013 21.5417 14.1178 21.9906C13.0342 22.4395 11.8656 22.664 10.6118 22.664ZM10.6118 20.1564C11.5096 20.1564 12.3299 19.9938 13.0729 19.6688C13.8314 19.3437 14.4893 18.8948 15.0465 18.3221C15.6037 17.7339 16.0372 17.0528 16.3467 16.2789C16.6563 15.4895 16.8111 14.6381 16.8111 13.7249C16.8111 12.8116 16.6563 11.968 16.3467 11.1941C16.0372 10.4201 15.6037 9.73903 15.0465 9.15083C14.4893 8.56263 13.8314 8.106 13.0729 7.78094C12.3299 7.45589 11.5096 7.29336 10.6118 7.29336C9.714 7.29336 8.88587 7.45589 8.1274 7.78094C7.38441 8.106 6.7343 8.56263 6.17705 9.15083C5.61981 9.73903 5.1864 10.4201 4.87682 11.1941C4.58272 11.968 4.43567 12.8116 4.43567 13.7249C4.43567 14.6381 4.58272 15.4895 4.87682 16.2789C5.1864 17.0528 5.61981 17.7339 6.17705 18.3221C6.7343 18.8948 7.39215 19.3437 8.15062 19.6688C8.90909 19.9938 9.72948 20.1564 10.6118 20.1564ZM14.9536 24.475L9.28833 15.4662H12.2138L17.9024 24.475H14.9536Z" fill="#294670"/>
</svg>
