<svg width="349" height="377" viewBox="0 0 349 377" fill="none" xmlns="http://www.w3.org/2000/svg">
<path d="M0.5 38H162C162 38 228.5 40.5 230.5 115.5C232.5 190.5 162 190.5 162 190.5H38V291" stroke="black" stroke-width="76"/>
<path d="M0 318.5H76V376.5H0V318.5Z" fill="black"/>
<path d="M349 376.546H257.518L139 213.117L200.524 168.5L349 376.546Z" fill="black"/>
<path d="M256.785 335.543L278.809 319.908L280.315 322.031L258.292 337.666L256.785 335.543ZM259.669 318.544L261.809 317.024L277.432 339.03L275.291 340.55L259.669 318.544Z" fill="white"/>
<path d="M211.72 274.255L233.744 258.62L235.251 260.743L213.227 276.378L211.72 274.255ZM214.604 257.256L216.745 255.736L232.367 277.742L230.226 279.262L214.604 257.256Z" fill="#272727"/>
<path d="M234.253 303.998L256.276 288.363L257.783 290.485L235.759 306.12L234.253 303.998ZM237.136 286.999L239.277 285.479L254.899 307.485L252.759 309.004L237.136 286.999Z" fill="#414141"/>
<path d="M189.188 242.71L211.212 227.075L212.719 229.197L190.695 244.832L189.188 242.71ZM192.072 225.711L194.212 224.191L209.835 246.197L207.694 247.716L192.072 225.711Z" fill="#151515"/>
</svg>
