<svg width="44" height="44" viewBox="0 0 44 44" fill="none" xmlns="http://www.w3.org/2000/svg">
<rect width="44" height="44" rx="4" fill="#E8EAEE"/>
<path d="M19.7453 24.85L14.9053 22V17C14.9053 14.79 16.7303 13 18.9813 13C20.3783 13 21.6113 13.69 22.3463 14.741" stroke="black" stroke-width="1.5" stroke-linecap="round" stroke-linejoin="round"/>
<path d="M17.6001 29.18C17.976 29.7417 18.4849 30.2019 19.0816 30.5194C19.6783 30.8369 20.3442 31.002 21.0201 31C23.2701 31 25.0961 29.21 25.0961 27V22L20.1601 19.097" stroke="black" stroke-width="1.5" stroke-linecap="round" stroke-linejoin="round"/>
<path d="M17.4521 23.5V17.67L21.8641 15.17C23.8141 14.065 26.3071 14.72 27.4331 16.633C27.778 17.2162 27.9662 17.8786 27.9795 18.556C27.9928 19.2334 27.8308 19.9027 27.5091 20.499" stroke="black" stroke-width="1.5" stroke-linecap="round" stroke-linejoin="round"/>
<path d="M12.4901 23.5C12.1684 24.0962 12.0062 24.7655 12.0193 25.4429C12.0324 26.1203 12.2205 26.7827 12.5651 27.366C13.6911 29.279 16.1851 29.934 18.1351 28.83L22.5471 26.33L22.6431 20.734" stroke="black" stroke-width="1.5" stroke-linecap="round" stroke-linejoin="round"/>
<path d="M25.0963 27.63C25.7779 27.6036 26.4421 27.4072 27.0284 27.0586C27.6147 26.71 28.1045 26.2203 28.4533 25.634C29.5783 23.721 28.9103 21.274 26.9613 20.17L22.5483 17.67L17.4893 20.425" stroke="black" stroke-width="1.5" stroke-linecap="round" stroke-linejoin="round"/>
<path d="M14.905 16.37C14.2233 16.3962 13.5588 16.5926 12.9723 16.9412C12.3858 17.2898 11.8959 17.7796 11.547 18.366C10.421 20.279 11.089 22.726 13.039 23.83L17.452 26.33L22.5 23.58" stroke="black" stroke-width="1.5" stroke-linecap="round" stroke-linejoin="round"/>
</svg>
